<svg width="94" height="90" viewBox="0 0 94 90" fill="none" xmlns="http://www.w3.org/2000/svg">
<path id="Vector 36" d="M5.17881 79.4493H2V87.5H92V79.4493H89.4172M5.17881 79.4493V74.9559C5.17881 74.2695 5.69536 72.8965 7.76159 72.8965C7.93959 72.8965 8.48551 72.8965 9.35099 72.8965M5.17881 79.4493H89.4172M89.4172 79.4493C89.4172 78.2636 89.4172 75.5925 89.4172 74.3943C89.4172 73.196 87.8278 72.8965 87.0331 72.8965C86.4503 72.8965 85.854 72.8965 85.245 72.8965M9.35099 72.8965C11.2123 72.8965 14.5514 72.8965 18.8874 72.8965M9.35099 72.8965V59.2291M85.245 72.8965C82.1545 72.8965 78.738 72.8965 75.1126 72.8965M85.245 72.8965V59.2291M18.8874 72.8965V59.2291M18.8874 72.8965C25.0265 72.8965 33.1637 72.8965 41.9338 72.8965M46.9007 11.8612C40.7889 11.8612 35.7981 13.3914 31.8013 15.6637M46.9007 11.8612V2.50467M46.9007 11.8612C53.0124 11.8612 57.9564 13.3914 61.8836 15.6637M75.1126 72.8965L74.8513 59.2291M75.1126 72.8965C67.945 72.8965 59.961 72.8965 52.0662 72.8965M9.35099 59.2291H18.8874M9.35099 59.2291V41.8172M18.8874 59.2291V41.8172M9.35099 41.8172V31.3326C9.48215 28.6135 10.242 25.1251 11.9338 21.5203M9.35099 41.8172H18.8874M18.8874 41.8172V31.3326C18.8874 29.4604 20.0012 28.2574 21.0265 26.4648M11.9338 21.5203L21.0265 26.4648M11.9338 21.5203C14.3684 16.3327 18.7332 10.9041 25.9319 7.18062M21.0265 26.4648C23.1473 22.7567 26.6482 18.5933 31.8013 15.6637M25.9319 7.18062L31.8013 15.6637M25.9319 7.18062C31.252 4.42879 38.12 2.60829 46.9007 2.50467M46.9007 2.50467C47.1638 2.50156 47.4287 2.5 47.6954 2.5C56.8577 2.5 63.9284 4.34632 69.3299 7.18062M61.8836 15.6637L69.3299 7.18062M61.8836 15.6637C67.2911 18.7924 70.771 23.3281 72.7181 27.2137M69.3299 7.18062C76.7175 11.0571 80.9826 16.7818 83.2056 22.1586M72.7181 27.2137C73.3748 28.5242 74.3179 29.6476 74.3179 31.3326L74.5183 41.8172M72.7181 27.2137L83.2056 22.1586M83.2056 22.1586C84.6015 25.535 85.1921 28.7743 85.245 31.3326V41.8172M74.5183 41.8172H85.245M74.5183 41.8172L74.8513 59.2291M85.245 41.8172V59.2291M74.8513 59.2291H85.245M41.9338 72.8965V66.9053C39.6159 66.2188 34.543 64.2841 32.7947 62.0374C32.2517 61.3397 33.873 60.8374 36.5695 60.5143M41.9338 72.8965C45.2455 72.8965 48.6475 72.8965 52.0662 72.8965M52.0662 72.8965V66.9053C57.2318 64.6586 57.8278 64.0969 60.4106 62.0374C61.1022 61.486 59.971 61.0405 57.8278 60.7133M57.8278 60.7133C60.0132 58.2839 63.5894 53.4372 63.5894 47.6211C63.5894 41.8051 60.8079 36.9493 55.245 33.0176V23.4692H38.3576V33.0176C35.7748 34.7651 30.6093 40.1322 30.6093 47.6211C30.6093 55.1101 34.5828 59.337 36.5695 60.5143M57.8278 60.7133C52.8187 59.9484 42.2817 59.8297 36.5695 60.5143" stroke="#837D6F" stroke-width="4"/>
</svg>
