<svg width="140" height="105" viewBox="0 0 140 105" fill="none" xmlns="http://www.w3.org/2000/svg">
<g id="Group 1">
<path id="Vector 42" d="M30.9159 10.6524C43.3867 8.07182 51.2311 19.3443 53.8525 27.3675M90.7081 73.7672H105.93C103.746 60.3951 102.921 53.9826 100.299 45.9593C101.392 42.6163 104.231 35.9302 106.853 35.9302C109.474 35.9302 81.7318 35.9302 67.533 35.9302C64.2563 24.7868 53.1157 2.5 34.7665 2.5C16.4173 2.5 9.64551 15.8721 8.5533 22.5581H2V29.2442H8.5533C10.7377 33.7016 17.0726 42.6163 24.9365 42.6163C36.6434 42.6163 32.5821 29.2442 31.4898 22.5581C34.7665 27.0155 40.6645 37.936 38.0431 45.9593C35.4218 53.9826 28.2132 82.7326 24.9365 96.1047H31.4898L47.8731 66.0174H87.1929L90.7081 73.7672Z" stroke="#837D6F" stroke-width="4"/>
<path id="Vector 41" d="M86.3717 81.6848H106.474M108.994 73.8372C110.105 72.1511 113.328 68.7791 117.329 68.7791C122.33 68.7791 127.332 72.1511 128.999 73.8372C130.332 75.186 132.888 76.6473 134 77.2093L128.999 78.8953C128.191 86.6265 122.392 102.171 105.659 102.5C92.3228 102.5 82.2832 88.5823 80.6532 85.6395C77.0089 79.0598 73.9849 77.2093 63.9824 73.8372H108.994Z" stroke="#837D6F" stroke-width="4"/>
</g>
</svg>
