<svg width="122" height="106" viewBox="0 0 122 106" fill="none" xmlns="http://www.w3.org/2000/svg">
<path id="Vector 30" d="M6.81053 63.7322H2.5V48.783H14.2M6.81053 63.7322C8.24737 74.8595 12.5374 98.3331 18.2026 103.21H44.3737C45.179 101.476 46.1578 99.2398 47.2027 96.6785M6.81053 63.7322H56.0737M56.0737 63.7322H60.2303V60.1038M56.0737 63.7322C56.0308 65.8148 55.7632 68.1213 55.3304 70.5537M47.2027 96.6785H97.3316M47.2027 96.6785C50.2271 89.2653 53.8049 79.1272 55.3304 70.5537M109.186 96.6785L107.646 103.5H97.3316V96.6785M109.186 96.6785H97.3316M109.186 96.6785L112.16 83.0356M55.3304 70.5537H114.882M60.2303 60.1038V48.783H48.9151M60.2303 60.1038H70.5447M114.882 70.5537H119.5V60.1038H108.724M114.882 70.5537L112.16 83.0356M112.16 83.0356H81.1671M70.5447 60.1038C68.8513 58.7975 65.5876 54.5014 66.0803 47.7671C67.3821 47.8143 70.57 48.8748 73.1265 52.7017C73.1896 51.4439 73.8392 48.2315 75.9329 45.4448C76.6513 45.4932 78.3653 47.0123 79.4737 52.7017C80.5 51.4439 83.23 48.6959 85.9395 47.7671C86.4526 50.3795 86.4321 56.5044 82.2447 60.1038M70.5447 60.1038H82.2447M82.2447 60.1038H96.7158M96.7158 60.1038C94.9197 57.8299 91.5124 52.1792 92.2513 47.7671C93.8934 48.2508 97.5779 49.9151 99.1789 52.7017C99.2816 51.1536 100.041 47.5348 102.258 45.4448C103.233 46.0254 105.244 48.2895 105.491 52.7017C106.928 51.202 110.232 48.1154 111.957 47.7671C112.572 50.0893 112.788 55.8077 108.724 60.1038M96.7158 60.1038H108.724M14.2 48.783C9.47895 43.3162 0.71421 29.0443 3.42368 15.6916C8.43558 18.0541 16.5742 23.3267 22.676 30.7859M14.2 48.783H30.6724M30.6724 48.783C30.0248 41.9265 26.8202 35.8519 22.676 30.7859M30.6724 48.783H37.6M22.676 30.7859C23.1862 24.4966 25.6229 10.2344 31.2882 3.5C34.6181 6.16486 39.6719 14.7904 39.5712 30.7859M37.6 48.783C38.9603 41.9718 39.5384 35.989 39.5712 30.7859M37.6 48.783H48.9151M39.5712 30.7859C43.1733 26.6253 52.0711 17.7816 58.8447 15.6916C59.9737 22.4163 59.5683 38.4492 48.9151 48.783" stroke="#837D6F" stroke-width="4"/>
</svg>
