<svg width="26" height="26" viewBox="0 0 26 26" fill="none" xmlns="http://www.w3.org/2000/svg">
<path id="Vector" d="M13.0002 0.199951C20.0696 0.199951 25.8002 5.93051 25.8002 12.9999C25.8002 20.0694 20.0696 25.7999 13.0002 25.7999C10.7382 25.8036 8.51593 25.205 6.56181 24.0655L0.205333 25.7999L1.93589 19.4409C0.795532 17.4862 0.196434 15.263 0.200213 12.9999C0.200213 5.93051 5.93077 0.199951 13.0002 0.199951ZM8.63797 6.98395L8.38197 6.99419C8.21624 7.00428 8.05426 7.04782 7.90581 7.12219C7.76696 7.20082 7.6402 7.29911 7.52949 7.41403C7.37589 7.55867 7.28885 7.68411 7.19541 7.80571C6.72197 8.42126 6.46705 9.17699 6.47093 9.95355C6.47349 10.5807 6.63733 11.1913 6.89333 11.7622C7.41685 12.9167 8.27829 14.1391 9.41493 15.2719C9.68885 15.5446 9.95765 15.8185 10.2469 16.0732C11.6593 17.3167 13.3423 18.2134 15.1621 18.6921L15.8892 18.8035C16.126 18.8163 16.3628 18.7983 16.6008 18.7868C16.9736 18.7676 17.3376 18.6666 17.6671 18.4911C17.8347 18.4048 17.9983 18.3108 18.1573 18.2095C18.1573 18.2095 18.2124 18.1737 18.3173 18.0943C18.4901 17.9663 18.5964 17.8755 18.7397 17.7257C18.846 17.6156 18.9381 17.4863 19.0085 17.3391C19.1084 17.1305 19.2082 16.7324 19.2492 16.4009C19.2799 16.1475 19.2709 16.0092 19.2671 15.9235C19.262 15.7865 19.148 15.6444 19.0239 15.5843L18.2789 15.2502C18.2789 15.2502 17.1653 14.7651 16.4844 14.4553C16.4131 14.4242 16.3368 14.4064 16.2591 14.4028C16.1715 14.3938 16.083 14.4037 15.9996 14.4317C15.9161 14.4598 15.8396 14.5053 15.7752 14.5654C15.7688 14.5628 15.6831 14.6358 14.7576 15.7571C14.7045 15.8284 14.6314 15.8824 14.5475 15.912C14.4636 15.9416 14.3728 15.9456 14.2866 15.9235C14.2032 15.9011 14.1215 15.8729 14.0421 15.839C13.8834 15.7724 13.8284 15.7468 13.7196 15.7007C12.9849 15.3802 12.3048 14.947 11.7036 14.4169C11.5423 14.2761 11.3925 14.1225 11.2389 13.974C10.7354 13.4918 10.2965 12.9462 9.93333 12.351L9.85781 12.2294C9.80356 12.1477 9.75971 12.0595 9.72725 11.967C9.67861 11.7788 9.80533 11.6278 9.80533 11.6278C9.80533 11.6278 10.1164 11.2873 10.261 11.103C10.4018 10.9238 10.5208 10.7497 10.5976 10.6255C10.7487 10.3823 10.796 10.1327 10.7167 9.93947C10.3583 9.06395 9.98709 8.19227 9.60565 7.32699C9.53013 7.15547 9.30613 7.03259 9.10261 7.00827C9.03349 7.00059 8.96437 6.99291 8.89525 6.98779C8.72335 6.97925 8.5511 6.98096 8.37941 6.99291L8.63797 6.98395Z" fill="#F8F8F8"/>
</svg>
