<svg width="26" height="20" viewBox="0 0 26 20" fill="none" xmlns="http://www.w3.org/2000/svg">
<path id="Vector" d="M10.4402 14.1143L17.0834 10L10.4402 5.88574V14.1143ZM25.237 3.37602C25.4034 4.0206 25.5186 4.8846 25.5954 5.98174C25.685 7.07888 25.7234 8.02517 25.7234 8.84802L25.8002 10C25.8002 13.0035 25.5954 15.2115 25.237 16.624C24.917 17.8583 24.1746 18.6537 23.0226 18.9966C22.421 19.1749 21.3202 19.2983 19.6306 19.3806C17.9666 19.4766 16.4434 19.5177 15.0354 19.5177L13.0002 19.6C7.637 19.6 4.2962 19.3806 2.9778 18.9966C1.8258 18.6537 1.0834 17.8583 0.763395 16.624C0.596995 15.9795 0.481795 15.1155 0.404995 14.0183C0.315395 12.9212 0.276995 11.9749 0.276995 11.152L0.200195 10C0.200195 6.9966 0.404995 4.7886 0.763395 3.37602C1.0834 2.14174 1.8258 1.34631 2.9778 1.00345C3.5794 0.825167 4.6802 0.701738 6.3698 0.619453C8.0338 0.523453 9.557 0.48231 10.965 0.48231L13.0002 0.400024C18.3634 0.400024 21.7042 0.619453 23.0226 1.00345C24.1746 1.34631 24.917 2.14174 25.237 3.37602Z" fill="#F8F8F8"/>
</svg>
